<svg width="24" height="24" viewBox="0 0 24 24" fill="none" xmlns="http://www.w3.org/2000/svg">
<path d="M12.0502 16L15.5502 12.5C15.8335 12.2167 16.0169 11.8708 16.1002 11.4625C16.1835 11.0542 16.1419 10.6583 15.9752 10.275C15.8085 9.89167 15.5585 9.58333 15.2252 9.35C14.8919 9.11667 14.5169 9 14.1002 9C13.6835 9 13.3085 9.12917 12.9752 9.3875C12.6419 9.64583 12.3335 9.91667 12.0502 10.2C11.7502 9.91667 11.4377 9.64583 11.1127 9.3875C10.7877 9.12917 10.4169 9 10.0002 9C9.58353 9 9.20436 9.1125 8.8627 9.3375C8.52103 9.5625 8.26686 9.86667 8.1002 10.25C7.93353 10.6333 7.89603 11.0292 7.9877 11.4375C8.07936 11.8458 8.26686 12.2 8.5502 12.5L12.0502 16ZM9.2502 22L8.8502 18.8C8.63353 18.7167 8.42936 18.6167 8.2377 18.5C8.04603 18.3833 7.85853 18.2583 7.6752 18.125L4.7002 19.375L1.9502 14.625L4.5252 12.675C4.50853 12.5583 4.5002 12.4458 4.5002 12.3375V11.6625C4.5002 11.5542 4.50853 11.4417 4.5252 11.325L1.9502 9.375L4.7002 4.625L7.6752 5.875C7.85853 5.74167 8.0502 5.61667 8.2502 5.5C8.4502 5.38333 8.6502 5.28333 8.8502 5.2L9.2502 2H14.7502L15.1502 5.2C15.3669 5.28333 15.571 5.38333 15.7627 5.5C15.9544 5.61667 16.1419 5.74167 16.3252 5.875L19.3002 4.625L22.0502 9.375L19.4752 11.325C19.4919 11.4417 19.5002 11.5542 19.5002 11.6625V12.3375C19.5002 12.4458 19.4835 12.5583 19.4502 12.675L22.0252 14.625L19.2752 19.375L16.3252 18.125C16.1419 18.2583 15.9502 18.3833 15.7502 18.5C15.5502 18.6167 15.3502 18.7167 15.1502 18.8L14.7502 22H9.2502Z" fill="#FF0651"/>
</svg>
