<svg width="24" height="24" viewBox="0 0 24 24" fill="none" xmlns="http://www.w3.org/2000/svg">
<path d="M7 20.025V11H8.6C8.71667 11 8.83333 11.0125 8.95 11.0375C9.06667 11.0625 9.18333 11.0917 9.3 11.125L16.225 13.7C16.4583 13.7833 16.6458 13.9333 16.7875 14.15C16.9292 14.3667 17 14.5917 17 14.825C17 15.175 16.8792 15.4583 16.6375 15.675C16.3958 15.8917 16.1167 16 15.8 16H13.175C13.0917 16 13.0292 15.9958 12.9875 15.9875C12.9458 15.9792 12.8917 15.9583 12.825 15.925L11.225 15.3L10.9 16.275L12.825 16.95C12.8583 16.9667 12.9083 16.9792 12.975 16.9875C13.0417 16.9958 13.1 17 13.15 17H20C20.5333 17 21 17.1917 21.4 17.575C21.8 17.9583 22 18.4333 22 19L14.025 22L7 20.025ZM1 22V11H5V22H1ZM16 13L11.85 8.95C11.3333 8.45 10.8958 7.89583 10.5375 7.2875C10.1792 6.67917 10 6.01667 10 5.3C10 4.38333 10.3208 3.60417 10.9625 2.9625C11.6042 2.32083 12.3833 2 13.3 2C13.8333 2 14.3333 2.1125 14.8 2.3375C15.2667 2.5625 15.6667 2.86667 16 3.25C16.3333 2.86667 16.7333 2.5625 17.2 2.3375C17.6667 2.1125 18.1667 2 18.7 2C19.6167 2 20.3958 2.32083 21.0375 2.9625C21.6792 3.60417 22 4.38333 22 5.3C22 6.01667 21.825 6.67917 21.475 7.2875C21.125 7.89583 20.6917 8.45 20.175 8.95L16 13Z" fill="#FF0651"/>
</svg>
