<svg width="24" height="24" viewBox="0 0 24 24" fill="none" xmlns="http://www.w3.org/2000/svg">
<path d="M7 22C8.03333 22 8.87917 21.7417 9.5375 21.225C10.1958 20.7083 10.7 19.95 11.05 18.95C11.3333 18.1167 11.6042 17.5333 11.8625 17.2C12.1208 16.8667 12.7167 16.3333 13.65 15.6C14.6833 14.7667 15.5 13.825 16.1 12.775C16.7 11.725 17 10.4667 17 9C17 7.01666 16.3292 5.35416 14.9875 4.0125C13.6458 2.67083 11.9833 2 10 2C8.01667 2 6.35417 2.67083 5.0125 4.0125C3.67083 5.35416 3 7.01666 3 9H5C5 7.58333 5.47917 6.39583 6.4375 5.4375C7.39583 4.47916 8.58333 4 10 4C11.4167 4 12.6042 4.47916 13.5625 5.4375C14.5208 6.39583 15 7.58333 15 9C15 10.1333 14.775 11.1 14.325 11.9C13.875 12.7 13.2333 13.4167 12.4 14.05C11.5333 14.6833 10.8583 15.3 10.375 15.9C9.89167 16.5 9.53333 17.15 9.3 17.85C9.06667 18.5833 8.7875 19.125 8.4625 19.475C8.1375 19.825 7.65 20 7 20C6.45 20 5.97917 19.8042 5.5875 19.4125C5.19583 19.0208 5 18.55 5 18H3C3 19.1 3.39167 20.0417 4.175 20.825C4.95833 21.6083 5.9 22 7 22ZM17.8 16.75C18.7833 15.75 19.5625 14.5875 20.1375 13.2625C20.7125 11.9375 21 10.5167 21 9C21 7.46666 20.7125 6.03333 20.1375 4.7C19.5625 3.36666 18.7833 2.2 17.8 1.2L16.35 2.6C17.1833 3.43333 17.8333 4.39583 18.3 5.4875C18.7667 6.57916 19 7.75 19 9C19 10.2333 18.7667 11.3917 18.3 12.475C17.8333 13.5583 17.1833 14.5167 16.35 15.35L17.8 16.75ZM10 11.5C10.7 11.5 11.2917 11.2542 11.775 10.7625C12.2583 10.2708 12.5 9.68333 12.5 9C12.5 8.3 12.2583 7.70833 11.775 7.225C11.2917 6.74166 10.7 6.5 10 6.5C9.3 6.5 8.70833 6.74166 8.225 7.225C7.74167 7.70833 7.5 8.3 7.5 9C7.5 9.68333 7.74167 10.2708 8.225 10.7625C8.70833 11.2542 9.3 11.5 10 11.5Z" fill="#FF0651"/>
</svg>
